{
  "accessors": [
    {
      "bufferView": 2,
      "componentType": 5126,
      "count": 3482,
      "max": [
        0.084362998604774475,
        0.020310999825596809,
        0.03570299968123436
      ],
      "min": [
        -0.084365002810955048,
        -0.043143000453710556,
        -0.13071300089359283
      ],
      "type": "VEC3"
    },
    {
      "bufferView": 2,
      "byteOffset": 41784,
      "componentType": 5126,
      "count": 3482,
      "max": [
        0.99993371963500977,
        0.99785369634628296,
        0.99616330862045288
      ],
      "min": [
        -0.99993371963500977,
        -0.99872368574142456,
        -0.99838024377822876
      ],
      "type": "VEC3"
    },
    {
      "bufferView": 1,
      "componentType": 5126,
      "count": 3482,
      "max": [
        0.74929898977279663,
        0.93633997440338135
      ],
      "min": [
        0.58576297760009766,
        0.87766498327255249
      ],
      "type": "VEC2"
    },
    {
      "bufferView": 0,
      "componentType": 5125,
      "count": 9384,
      "max": [
        3481
      ],
      "min": [
        0
      ],
      "type": "SCALAR"
    },
    {
      "bufferView": 2,
      "byteOffset": 83568,
      "componentType": 5126,
      "count": 128,
      "max": [
        0.077187001705169678,
        0.019607000052928925,
        0.033821001648902893
      ],
      "min": [
        -0.077187001705169678,
        -0.041260000318288803,
        0.020145999267697334
      ],
      "type": "VEC3"
    },
    {
      "bufferView": 2,
      "byteOffset": 85104,
      "componentType": 5126,
      "count": 128,
      "max": [
        0.00077068910468369722,
        0.21921385824680328,
        0.9756922721862793
      ],
      "min": [
        -0.0007706889882683754,
        -0.21921385824680328,
        -0.97569221258163452
      ],
      "type": "VEC3"
    },
    {
      "bufferView": 1,
      "byteOffset": 27856,
      "componentType": 5126,
      "count": 128,
      "max": [
        0.58472400903701782,
        0.92057698965072632
      ],
      "min": [
        0.51111900806427002,
        0.88403302431106567
      ],
      "type": "VEC2"
    },
    {
      "bufferView": 0,
      "byteOffset": 37536,
      "componentType": 5125,
      "count": 360,
      "max": [
        127
      ],
      "min": [
        0
      ],
      "type": "SCALAR"
    }
  ],
  "asset": {
    "extras": {
      "author": "maximkuzlin (https://sketchfab.com/maximkuzlin)",
      "license": "CC-BY-4.0 (http://creativecommons.org/licenses/by/4.0/)",
      "source": "https://sketchfab.com/3d-models/heart-glasses-ef812c7e7dc14f6b8783ccb516b3495c",
      "title": "Heart Glasses"
    },
    "generator": "Sketchfab-9.31.1",
    "version": "2.0"
  },
  "bufferViews": [
    {
      "buffer": 0,
      "byteLength": 38976,
      "byteOffset": 0,
      "name": "floatBufferViews",
      "target": 34963
    },
    {
      "buffer": 0,
      "byteLength": 28880,
      "byteOffset": 38976,
      "byteStride": 8,
      "name": "floatBufferViews",
      "target": 34962
    },
    {
      "buffer": 0,
      "byteLength": 86640,
      "byteOffset": 67856,
      "byteStride": 12,
      "name": "floatBufferViews",
      "target": 34962
    }
  ],
  "buffers": [
    {
      "byteLength": 154496,
      "uri": "heart_glasses.bin"
    }
  ],
  "materials": [
    {
      "doubleSided": true,
      "emissiveFactor": [
        0,
        0,
        0
      ],
      "name": "DiffuseMap",
      "pbrMetallicRoughness": {
        "baseColorFactor": [
          0.90417733796909794,
          0,
          0.53324630446063992,
          1
        ],
        "metallicFactor": 0,
        "roughnessFactor": 0.88431527643074781
      }
    },
    {
      "doubleSided": false,
      "emissiveFactor": [
        0,
        0,
        0
      ],
      "name": "Material.001",
      "pbrMetallicRoughness": {
        "baseColorFactor": [
          0.92640864432764236,
          0.25730578540798049,
          1,
          1
        ],
        "metallicFactor": 0.83317149297701476,
        "roughnessFactor": 0
      }
    }
  ],
  "meshes": [
    {
      "name": "oprava_geom.001_DiffuseMap_0",
      "primitives": [
        {
          "attributes": {
            "NORMAL": 1,
            "POSITION": 0,
            "TEXCOORD_0": 2
          },
          "indices": 3,
          "material": 0,
          "mode": 4
        }
      ]
    },
    {
      "name": "glasses_geom_Material.001_0",
      "primitives": [
        {
          "attributes": {
            "NORMAL": 5,
            "POSITION": 4,
            "TEXCOORD_0": 6
          },
          "indices": 7,
          "material": 1,
          "mode": 4
        }
      ]
    }
  ],
  "nodes": [
    {
      "children": [
        1
      ],
      "name": "RootNode (gltf orientation matrix)",
      "rotation": [
        -0.70710678118654746,
        -0,
        -0,
        0.70710678118654757
      ]
    },
    {
      "children": [
        2
      ],
      "matrix": [
        1,
        0,
        0,
        0,
        0,
        1,
        0,
        0,
        0,
        0,
        1,
        0,
        0,
        -2.9436128556881158e-07,
        -1.2062395171597018e-06,
        1
      ],
      "name": "RootNode (model correction matrix)"
    },
    {
      "children": [
        3
      ],
      "matrix": [
        1,
        0,
        0,
        0,
        0,
        0,
        1,
        0,
        0,
        -1,
        0,
        0,
        0,
        0,
        0,
        1
      ],
      "name": "a23d5d200d2342d8819df70f2d353b54.fbx"
    },
    {
      "children": [
        4,
        6
      ],
      "name": "RootNode"
    },
    {
      "children": [
        5
      ],
      "matrix": [
        100,
        0,
        0,
        0,
        0,
        99.999999999998664,
        1.6292067073209114e-05,
        0,
        0,
        -1.6292067073209114e-05,
        99.999999999998664,
        0,
        0,
        0,
        0,
        1
      ],
      "name": "oprava_geom.001"
    },
    {
      "mesh": 0,
      "name": "oprava_geom.001_DiffuseMap_0"
    },
    {
      "children": [
        7
      ],
      "matrix": [
        100,
        0,
        0,
        0,
        0,
        99.999999999998664,
        1.6292067073209114e-05,
        0,
        0,
        -1.6292067073209114e-05,
        99.999999999998664,
        0,
        0,
        0,
        0,
        1
      ],
      "name": "glasses_geom"
    },
    {
      "mesh": 1,
      "name": "glasses_geom_Material.001_0"
    }
  ],
  "scene": 0,
  "scenes": [
    {
      "name": "OSG_Scene",
      "nodes": [
        0
      ]
    }
  ]
}
